<svg width="32" height="32" viewBox="0 0 32 32" fill="none" xmlns="http://www.w3.org/2000/svg">
<g id="Frame" clip-path="url(#clip0_1_31131)">
<path id="Vector" d="M16 31.6385L7.51467 23.1532C5.83646 21.475 4.69358 19.3368 4.23057 17.009C3.76756 14.6812 4.00521 12.2684 4.91346 10.0757C5.82172 7.88303 7.35979 6.00889 9.33318 4.69032C11.3066 3.37175 13.6266 2.66797 16 2.66797C18.3734 2.66797 20.6934 3.37175 22.6668 4.69032C24.6402 6.00889 26.1783 7.88303 27.0865 10.0757C27.9948 12.2684 28.2324 14.6812 27.7694 17.009C27.3064 19.3368 26.1636 21.475 24.4853 23.1532L16 31.6385ZM22.6 21.2679C23.9052 19.9625 24.794 18.2995 25.1541 16.489C25.5141 14.6786 25.3292 12.802 24.6228 11.0966C23.9163 9.39122 22.7201 7.93361 21.1852 6.90809C19.6504 5.88257 17.8459 5.3352 16 5.3352C14.1541 5.3352 12.3496 5.88257 10.8148 6.90809C9.27994 7.93361 8.08367 9.39122 7.37722 11.0966C6.67077 12.802 6.48589 14.6786 6.84594 16.489C7.20599 18.2995 8.09481 19.9625 9.4 21.2679L16 27.8679L22.6 21.2679ZM16 17.3345C15.2928 17.3345 14.6145 17.0536 14.1144 16.5535C13.6143 16.0534 13.3333 15.3751 13.3333 14.6679C13.3333 13.9606 13.6143 13.2823 14.1144 12.7822C14.6145 12.2821 15.2928 12.0012 16 12.0012C16.7072 12.0012 17.3855 12.2821 17.8856 12.7822C18.3857 13.2823 18.6667 13.9606 18.6667 14.6679C18.6667 15.3751 18.3857 16.0534 17.8856 16.5535C17.3855 17.0536 16.7072 17.3345 16 17.3345Z" fill="#329FDF"/>
</g>
<defs>
<clipPath id="clip0_1_31131">
<rect width="32" height="32" fill="white"/>
</clipPath>
</defs>
</svg>
