<svg width="24" height="24" viewBox="0 0 24 24" fill="none" xmlns="http://www.w3.org/2000/svg">
<g id="Frame" clip-path="url(#clip0_1_31406)">
<path id="Vector" d="M10.8998 2.10156L20.7988 3.51656L22.2128 13.4166L13.0208 22.6086C12.8333 22.796 12.579 22.9013 12.3138 22.9013C12.0487 22.9013 11.7944 22.796 11.6068 22.6086L1.70685 12.7086C1.51938 12.521 1.41406 12.2667 1.41406 12.0016C1.41406 11.7364 1.51938 11.4821 1.70685 11.2946L10.8998 2.10156ZM11.6068 4.22356L3.82785 12.0016L12.3138 20.4866L20.0918 12.7086L19.0318 5.28356L11.6068 4.22356ZM13.7268 10.5876C13.3517 10.2123 13.141 9.70334 13.1411 9.17271C13.1411 8.90997 13.1929 8.6498 13.2935 8.40708C13.3941 8.16435 13.5415 7.94382 13.7273 7.75806C13.9132 7.57231 14.1338 7.42497 14.3765 7.32447C14.6193 7.22396 14.8795 7.17226 15.1422 7.1723C15.6728 7.1724 16.1817 7.38328 16.5568 7.75856C16.932 8.13384 17.1427 8.64278 17.1426 9.17342C17.1425 9.70405 16.9316 10.2129 16.5563 10.5881C16.1811 10.9632 15.6721 11.1739 15.1415 11.1738C14.6109 11.1737 14.102 10.9628 13.7268 10.5876Z" fill="#289BDE"/>
</g>
<defs>
<clipPath id="clip0_1_31406">
<rect width="24" height="24" fill="white"/>
</clipPath>
</defs>
</svg>
