<svg width="32" height="32" viewBox="0 0 32 32" fill="none" xmlns="http://www.w3.org/2000/svg">
<g id="Frame" clip-path="url(#clip0_1_31391)">
<path id="Vector" d="M16.0003 2.66797C23.3603 2.66797 29.3337 8.6413 29.3337 16.0013C29.3337 23.3613 23.3603 29.3346 16.0003 29.3346C8.64033 29.3346 2.66699 23.3613 2.66699 16.0013C2.66699 8.6413 8.64033 2.66797 16.0003 2.66797ZM16.0003 26.668C21.8937 26.668 26.667 21.8946 26.667 16.0013C26.667 10.108 21.8937 5.33464 16.0003 5.33464C10.107 5.33464 5.33366 10.108 5.33366 16.0013C5.33366 21.8946 10.107 26.668 16.0003 26.668ZM17.3337 16.0013H21.3337L16.0003 21.3346L10.667 16.0013H14.667V10.668H17.3337V16.0013Z" fill="white"/>
</g>
<defs>
<clipPath id="clip0_1_31391">
<rect width="32" height="32" fill="white"/>
</clipPath>
</defs>
</svg>
