<svg width="40" height="40" viewBox="0 0 40 40" fill="none" xmlns="http://www.w3.org/2000/svg">
<g id="Frame" clip-path="url(#clip0_1_31485)">
<path id="Vector" d="M7.63833 28.8691C5.92167 27.0457 5 25.0007 5 21.6857C5 15.8524 9.095 10.6241 15.05 8.03906L16.5383 10.3357C10.98 13.3424 9.89333 17.2441 9.46 19.7041C10.355 19.2407 11.5267 19.0791 12.675 19.1857C15.6817 19.4641 18.0517 21.9324 18.0517 25.0007C18.0517 26.5478 17.4371 28.0316 16.3431 29.1255C15.2492 30.2195 13.7654 30.8341 12.2183 30.8341C10.43 30.8341 8.72 30.0174 7.63833 28.8691ZM24.305 28.8691C22.5883 27.0457 21.6667 25.0007 21.6667 21.6857C21.6667 15.8524 25.7617 10.6241 31.7167 8.03906L33.205 10.3357C27.6467 13.3424 26.56 17.2441 26.1267 19.7041C27.0217 19.2407 28.1933 19.0791 29.3417 19.1857C32.3483 19.4641 34.7183 21.9324 34.7183 25.0007C34.7183 26.5478 34.1037 28.0316 33.0098 29.1255C31.9158 30.2195 30.4321 30.8341 28.885 30.8341C27.0967 30.8341 25.3867 30.0174 24.305 28.8691Z" fill="#55AFE1"/>
</g>
<defs>
<clipPath id="clip0_1_31485">
<rect width="40" height="40" fill="white"/>
</clipPath>
</defs>
</svg>
