<svg width="56" height="56" viewBox="0 0 56 56" fill="none" xmlns="http://www.w3.org/2000/svg">
<g id="Frame" clip-path="url(#clip0_1_31383)">
<path id="Vector" d="M28 55.3645L13.1507 40.5152C10.2138 37.5783 8.21377 33.8364 7.4035 29.7628C6.59323 25.6892 7.00912 21.4668 8.59856 17.6296C10.188 13.7924 12.8796 10.5126 16.3331 8.20514C19.7865 5.89764 23.8466 4.66602 28 4.66602C32.1534 4.66602 36.2135 5.89764 39.667 8.20514C43.1204 10.5126 45.812 13.7924 47.4015 17.6296C48.9909 21.4668 49.4068 25.6892 48.5965 29.7628C47.7863 33.8364 45.7862 37.5783 42.8493 40.5152L28 55.3645ZM39.55 37.2158C41.8341 34.9315 43.3895 32.0212 44.0196 28.8529C44.6497 25.6846 44.3262 22.4006 43.0899 19.4161C41.8536 16.4317 39.7601 13.8809 37.0741 12.0862C34.3882 10.2916 31.2304 9.33368 28 9.33368C24.7697 9.33368 21.6118 10.2916 18.9259 12.0862C16.2399 13.8809 14.1464 16.4317 12.9101 19.4161C11.6739 22.4006 11.3503 25.6846 11.9804 28.8529C12.6105 32.0212 14.1659 34.9315 16.45 37.2158L28 48.7658L39.55 37.2158ZM28 30.3325C26.7623 30.3325 25.5753 29.8408 24.7002 28.9657C23.825 28.0905 23.3333 26.9035 23.3333 25.6658C23.3333 24.4282 23.825 23.2412 24.7002 22.366C25.5753 21.4908 26.7623 20.9992 28 20.9992C29.2377 20.9992 30.4247 21.4908 31.2998 22.366C32.175 23.2412 32.6667 24.4282 32.6667 25.6658C32.6667 26.9035 32.175 28.0905 31.2998 28.9657C30.4247 29.8408 29.2377 30.3325 28 30.3325Z" fill="#329FDF"/>
</g>
<defs>
<clipPath id="clip0_1_31383">
<rect width="56" height="56" fill="white"/>
</clipPath>
</defs>
</svg>
