<svg width="114" height="30" viewBox="0 0 114 30" fill="none" xmlns="http://www.w3.org/2000/svg">
<g id="Group 3738">
<path id="B" d="M0 29.6741V0.664062H11.8024C14.7737 0.664062 17.0984 1.32956 18.7766 2.66054C20.4548 3.96437 21.2939 5.82503 21.2939 8.24254C21.2939 9.92664 20.8262 11.3527 19.8908 12.5207C18.9829 13.6616 17.7174 14.4764 16.0942 14.9654V14.6394C17.9375 14.9925 19.3818 15.7938 20.4273 17.0433C21.4727 18.2928 21.9954 19.8683 21.9954 21.7697C21.9954 24.323 21.1426 26.2788 19.4369 27.6369C17.7312 28.9951 15.3239 29.6741 12.2151 29.6741H0ZM3.34265 26.9035H11.9262C14.2372 26.9035 15.9292 26.4825 17.0021 25.6404C18.1026 24.7984 18.6528 23.481 18.6528 21.6882C18.6528 19.9226 18.1026 18.5916 17.0021 17.6953C15.9016 16.7989 14.2097 16.3507 11.9262 16.3507H3.34265V26.9035ZM3.34265 13.5393H11.266C13.4944 13.5393 15.1588 13.1047 16.2593 12.2355C17.3873 11.3663 17.9512 10.0896 17.9512 8.40551C17.9512 6.74857 17.401 5.51266 16.3006 4.69776C15.2001 3.85571 13.5219 3.43469 11.266 3.43469H3.34265V13.5393Z" fill="white"/>
<path id="S" d="M73.8072 29.9999C72.294 29.9999 70.8772 29.8776 69.5566 29.6332C68.2361 29.3615 67.0118 28.9541 65.8839 28.4108C64.7559 27.8404 63.738 27.1478 62.8301 26.3329L64.1094 23.766C65.595 24.9883 67.0806 25.8575 68.5662 26.3736C70.0794 26.8897 71.8401 27.1478 73.8484 27.1478C76.1869 27.1478 78.0027 26.6996 79.2957 25.8032C80.5887 24.8796 81.2353 23.5894 81.2353 21.9325C81.2353 20.9274 80.9051 20.1261 80.2449 19.5285C79.6121 18.9038 78.7317 18.4149 77.6037 18.0617C76.5033 17.6815 75.2515 17.3283 73.8484 17.0024C72.4453 16.7036 71.111 16.3641 69.8455 15.9838C68.58 15.5763 67.452 15.0738 66.4616 14.4762C65.4987 13.8786 64.7421 13.1181 64.1919 12.1945C63.6417 11.271 63.3666 10.1166 63.3666 8.73125C63.3666 7.07431 63.8067 5.62109 64.6871 4.37159C65.5675 3.09493 66.8055 2.10348 68.4012 1.39725C69.9968 0.69101 71.8814 0.337891 74.0548 0.337891C75.4028 0.337891 76.6959 0.487287 77.9339 0.786079C79.1719 1.05771 80.3136 1.46515 81.3591 2.00841C82.432 2.55167 83.3812 3.21717 84.2065 4.00489L82.886 6.5718C81.5379 5.40379 80.1486 4.54815 78.718 4.00489C77.2874 3.46163 75.733 3.19 74.0548 3.19C71.7713 3.19 69.9831 3.66536 68.69 4.61606C67.397 5.56677 66.7505 6.89775 66.7505 8.60902C66.7505 9.66838 67.0393 10.524 67.6171 11.1759C68.1948 11.8278 69.0064 12.3575 70.0518 12.765C71.0973 13.1452 72.294 13.4984 73.6421 13.8243C75.0727 14.1503 76.4483 14.5034 77.7688 14.8837C79.0894 15.264 80.2586 15.7393 81.2765 16.3097C82.322 16.853 83.1473 17.5728 83.7526 18.4692C84.3578 19.3384 84.6604 20.4521 84.6604 21.8102C84.6604 23.4672 84.2203 24.9068 83.3399 26.1291C82.4595 27.3515 81.2078 28.3022 79.5846 28.9813C77.9614 29.6603 76.0356 29.9999 73.8072 29.9999Z" fill="white"/>
<path id="E" d="M95.4297 29.6741V0.664062H114V3.43469H98.7723V13.5393H113.175V16.3507H98.7723V26.9035H114V29.6741H95.4297Z" fill="white"/>
<path id="Rectangle 304 (Stroke)" fill-rule="evenodd" clip-rule="evenodd" d="M42.7937 0L53.9703 12.0381V29.6754H50.5313V13.3589L42.7937 5.02479L35.0561 13.3589V29.6754H31.6172V12.0381L42.7937 0Z" fill="#329FDF"/>
</g>
</svg>
