<svg width="108" height="20" viewBox="0 0 108 20" fill="none" xmlns="http://www.w3.org/2000/svg">
<g id="Group 3634">
<path id="Star 2" d="M9.52941 0L12.05 6.06016L18.5924 6.58466L13.6078 10.8545L15.1307 17.2389L9.52941 13.8176L3.92816 17.2389L5.45106 10.8545L0.466403 6.58466L7.00885 6.06016L9.52941 0Z" fill="#F8B400"/>
<path id="Star 3" d="M31.7638 0L34.2843 6.06016L40.8268 6.58466L35.8421 10.8545L37.365 17.2389L31.7638 13.8176L26.1625 17.2389L27.6854 10.8545L22.7008 6.58466L29.2432 6.06016L31.7638 0Z" fill="#F8B400"/>
<path id="Star 6" d="M54.0011 0L56.5217 6.06016L63.0641 6.58466L58.0794 10.8545L59.6023 17.2389L54.0011 13.8176L48.3998 17.2389L49.9227 10.8545L44.9381 6.58466L51.4805 6.06016L54.0011 0Z" fill="#F8B400"/>
<path id="Star 5" d="M76.2355 0L78.756 6.06016L85.2985 6.58466L80.3138 10.8545L81.8367 17.2389L76.2355 13.8176L70.6342 17.2389L72.1571 10.8545L67.1725 6.58466L73.7149 6.06016L76.2355 0Z" fill="#F8B400"/>
<path id="Star 4" d="M98.4698 0L100.99 6.06016L107.533 6.58466L102.548 10.8545L104.071 17.2389L98.4698 13.8176L92.8686 17.2389L94.3915 10.8545L89.4068 6.58466L95.9493 6.06016L98.4698 0Z" fill="#F8B400"/>
</g>
</svg>
